# This file uses meters as units for non-parametric coordinates.

mtllib glass.mtl
g default
v 1224.218140 154.665527 -695.699951
v 1224.218140 25.816895 -695.699951
v 1158.962158 154.665527 -695.699951
v 1158.962158 25.816895 -695.699951
v 1191.590088 90.241333 -695.699951
v -658.434753 606.368286 -1927.909180
v -658.434753 606.368286 -1996.750854
v -658.434753 547.503540 -1927.909180
v -658.434753 547.503540 -1996.750854
v 1044.025757 65.872314 -707.293762
v 856.804871 65.872314 -707.293762
v 1044.025757 164.024414 -707.293762
v 856.804871 164.024414 -707.293762
v -658.434753 338.266479 -1772.510132
v -658.434753 338.266479 -1841.351929
v -658.434753 279.402222 -1772.510132
v -658.434753 279.402222 -1841.351929
v -821.754150 419.197662 -720.839355
v -821.754150 360.333374 -720.839355
v -752.912354 360.333374 -720.839355
v -752.912354 419.197662 -720.839355
v 731.869751 687.298706 -1440.436035
v 731.869751 628.434692 -1440.436035
v 663.027954 687.298706 -1440.436035
v 663.027954 628.434692 -1440.436035
v -2455.682617 79.359619 -904.653442
v -2455.682617 79.359619 -749.621094
v -2455.682617 145.708496 -904.653442
v -2455.682617 145.708496 -749.621094
v -2455.682617 112.533936 -827.137268
v -720.838257 628.434692 -821.755249
v -720.838257 687.298706 -821.755249
v -720.838257 687.298706 -752.913452
v -720.838257 628.434692 -752.913452
v -1219.109375 419.197662 -720.839355
v -1287.951050 419.197662 -720.839355
v -1287.951050 360.333374 -720.839355
v -1219.109375 360.333374 -720.839355
v -752.912354 606.368286 -720.839355
v -821.754150 606.368286 -720.839355
v -752.912354 547.503540 -720.839355
v -821.754150 547.503540 -720.839355
v -977.153076 419.197662 -720.839355
v -977.153076 360.333374 -720.839355
v -908.311340 360.333374 -720.839355
v -908.311340 419.197662 -720.839355
v -658.434753 687.298706 -1927.909180
v -658.434753 687.298706 -1996.750854
v -658.434753 628.434692 -1927.909180
v -658.434753 628.434692 -1996.750854
v -1287.951050 338.266479 -720.839355
v -1219.109375 338.266479 -720.839355
v -1287.951050 279.402222 -720.839355
v -1219.109375 279.402222 -720.839355
v -1132.552124 606.368286 -720.839355
v -1063.710449 606.368286 -720.839355
v -1132.552124 547.503540 -720.839355
v -1063.710449 547.503540 -720.839355
v -752.912354 338.266479 -720.839355
v -821.754150 338.266479 -720.839355
v -752.912354 279.402222 -720.839355
v -821.754150 279.402222 -720.839355
v -690.508850 628.434692 -1740.436035
v -759.350647 628.434692 -1740.436035
v -690.508850 687.298706 -1740.436035
v -759.350647 687.298706 -1740.436035
v 802.803589 65.872314 -744.087341
v 802.803589 65.872314 -931.250122
v 802.803589 164.024414 -744.087341
v 802.803589 164.024414 -931.250122
v -1063.710449 687.298706 -720.839355
v -1132.552124 687.298706 -720.839355
v -1132.552124 628.434692 -720.839355
v -1063.710449 628.434692 -720.839355
v -2501.012207 145.708496 -674.261230
v -2644.994629 145.708496 -674.261230
v -2644.994629 79.359619 -674.261230
v -2501.012207 79.359619 -674.261230
v -2573.003418 136.062256 -674.261230
v -821.754150 687.298706 -720.839355
v -821.754150 628.434692 -720.839355
v -752.912354 628.434692 -720.839355
v -752.912354 687.298706 -720.839355
v 731.869751 547.503540 -1440.436035
v 663.027954 547.503540 -1440.436035
v 663.027954 606.368286 -1440.436035
v 731.869751 606.368286 -1440.436035
v -1812.837769 200.445740 -676.110413
v -1812.837769 250.861511 -777.211365
v -1756.670776 200.445740 -676.110413
v -1756.670776 250.861511 -777.211365
v -759.350647 279.402222 -1740.436035
v -690.508850 279.402222 -1740.436035
v -690.508850 338.266479 -1740.436035
v -759.350647 338.266479 -1740.436035
v -720.838257 547.503540 -821.755249
v -720.838257 547.503540 -752.913452
v -720.838257 606.368286 -752.913452
v -720.838257 606.368286 -821.755249
v -720.838257 360.333374 -1303.051758
v -720.838257 360.333374 -1371.893433
v -720.838257 419.197662 -1371.893433
v -720.838257 419.197662 -1303.051758
v -908.311340 338.266479 -720.839355
v -977.153076 338.266479 -720.839355
v -908.311340 279.402222 -720.839355
v -977.153076 279.402222 -720.839355
v -1673.652588 79.359619 -904.653442
v -1673.652588 79.359619 -749.621094
v -1673.652588 145.708496 -904.653442
v -1673.652588 145.708496 -749.621094
v -1673.652588 112.533936 -827.137268
v -1862.964600 145.708496 -674.261230
v -1862.964600 79.359619 -674.261230
v -1718.982422 79.359619 -674.261230
v -1718.982422 145.708496 -674.261230
v -1790.973511 112.533936 -674.261230
v -759.350647 547.503540 -1740.436035
v -690.508850 547.503540 -1740.436035
v -690.508850 606.368286 -1740.436035
v -759.350647 606.368286 -1740.436035
v -720.838257 279.402222 -1303.051758
v -720.838257 279.402222 -1371.893433
v -720.838257 338.266479 -1371.893433
v -720.838257 338.266479 -1303.051758
v -690.508850 360.333374 -1740.436035
v -759.350647 360.333374 -1740.436035
v -690.508850 419.197662 -1740.436035
v -759.350647 419.197662 -1740.436035
v -658.434753 419.197662 -1772.510132
v -658.434753 419.197662 -1841.351929
v -658.434753 360.333374 -1772.510132
v -658.434753 360.333374 -1841.351929
vt 0.625000 0.000000
vt 0.875000 0.000000
vt 0.750000 0.125000
vt 0.875000 0.250000
vt 0.625000 0.250000
vt 0.562500 0.075625
vt 0.562500 0.126250
vt 0.500000 0.126250
vt 0.500000 0.075625
vt 0.625000 0.000000
vt 0.875000 0.000000
vt 0.875000 0.250000
vt 0.625000 0.250000
vt 0.625000 0.075625
vt 0.625000 0.126250
vt 0.562500 0.126250
vt 0.562500 0.075625
vt 0.562500 0.025000
vt 0.562500 0.075625
vt 0.625000 0.075625
vt 0.625000 0.025000
vt 0.437500 0.075625
vt 0.437500 0.025000
vt 0.375000 0.025000
vt 0.375000 0.075625
vt 0.125000 0.028140
vt 0.375000 0.028139
vt 0.250000 0.139070
vt 0.375000 0.250000
vt 0.125000 0.250000
vt 0.437500 0.075625
vt 0.437500 0.025000
vt 0.375000 0.025000
vt 0.375000 0.075625
vt 0.562500 0.025000
vt 0.625000 0.025000
vt 0.625000 0.075625
vt 0.562500 0.075625
vt 0.625000 0.075625
vt 0.562500 0.075625
vt 0.562500 0.126250
vt 0.625000 0.126250
vt 0.500000 0.025000
vt 0.500000 0.075625
vt 0.562500 0.075625
vt 0.562500 0.025000
vt 0.500000 0.025000
vt 0.562500 0.025000
vt 0.562500 0.075625
vt 0.500000 0.075625
vt 0.625000 0.075625
vt 0.625000 0.126250
vt 0.562500 0.126250
vt 0.562500 0.075625
vt 0.562500 0.075625
vt 0.562500 0.126250
vt 0.500000 0.126250
vt 0.500000 0.075625
vt 0.625000 0.075625
vt 0.562500 0.075625
vt 0.562500 0.126250
vt 0.625000 0.126250
vt 0.437500 0.075625
vt 0.375000 0.075625
vt 0.375000 0.025000
vt 0.437500 0.025000
vt 0.625000 0.000000
vt 0.875000 0.000000
vt 0.875000 0.250000
vt 0.625000 0.250000
vt 0.500000 0.025000
vt 0.562500 0.025000
vt 0.562500 0.075625
vt 0.500000 0.075625
vt 0.375000 0.500000
vt 0.500000 0.500000
vt 0.437500 0.610930
vt 0.500000 0.721860
vt 0.375000 0.721860
vt 0.562500 0.025000
vt 0.562500 0.075625
vt 0.625000 0.075625
vt 0.625000 0.025000
vt 0.375000 0.126250
vt 0.437500 0.126250
vt 0.437500 0.075625
vt 0.375000 0.075625
vt 0.500000 0.500000
vt 0.500000 0.250000
vt 0.625000 0.250000
vt 0.625000 0.500000
vt 0.375000 0.126250
vt 0.375000 0.075625
vt 0.437500 0.075625
vt 0.437500 0.126250
vt 0.375000 0.126250
vt 0.437500 0.126250
vt 0.437500 0.075625
vt 0.375000 0.075625
vt 0.437500 0.075625
vt 0.375000 0.075625
vt 0.375000 0.025000
vt 0.437500 0.025000
vt 0.562500 0.075625
vt 0.500000 0.075625
vt 0.500000 0.126250
vt 0.562500 0.126250
vt 0.625000 0.028139
vt 0.875000 0.028140
vt 0.750000 0.139070
vt 0.875000 0.250000
vt 0.625000 0.250000
vt 0.500000 0.250000
vt 0.500000 0.028139
vt 0.562500 0.139070
vt 0.625000 0.028139
vt 0.625000 0.250000
vt 0.375000 0.126250
vt 0.375000 0.075625
vt 0.437500 0.075625
vt 0.437500 0.126250
vt 0.375000 0.126250
vt 0.375000 0.075625
vt 0.437500 0.075625
vt 0.437500 0.126250
vt 0.437500 0.075625
vt 0.375000 0.075625
vt 0.375000 0.025000
vt 0.437500 0.025000
vt 0.562500 0.025000
vt 0.625000 0.025000
vt 0.625000 0.075625
vt 0.562500 0.075625
vn -0.000002 0.000000 1.000000
vn -0.000002 0.000000 1.000000
vn -0.000002 0.000000 1.000000
vn 0.000000 0.000000 1.000000
vn 0.000000 0.000000 1.000000
vn 0.000000 0.000000 1.000000
vn 0.000002 0.000000 1.000000
vn 0.000002 0.000000 1.000000
vn 0.000002 0.000000 1.000000
vn 0.000000 0.000000 1.000000
vn 0.000000 0.000000 1.000000
vn 0.000000 0.000000 1.000000
vn 1.000000 0.000000 0.000000
vn 1.000000 0.000000 0.000000
vn 1.000000 0.000000 0.000000
vn 1.000000 0.000000 0.000000
vn 0.000000 0.000000 1.000000
vn 0.000000 0.000000 1.000000
vn 0.000000 0.000000 1.000000
vn 0.000000 0.000000 1.000000
vn 1.000000 0.000000 0.000000
vn 1.000000 0.000000 0.000000
vn 1.000000 0.000000 0.000000
vn 1.000000 0.000000 0.000000
vn 0.000000 0.000000 1.000000
vn 0.000000 0.000000 1.000000
vn 0.000000 0.000000 1.000000
vn 0.000000 0.000000 1.000000
vn 0.000000 0.000000 1.000000
vn 0.000000 0.000000 1.000000
vn 0.000000 0.000000 1.000000
vn 0.000000 0.000000 1.000000
vn 1.000000 0.000000 0.000000
vn 1.000000 0.000000 0.000000
vn 1.000000 0.000000 0.000000
vn 1.000000 0.000000 0.000000
vn 1.000000 0.000000 0.000000
vn 1.000000 0.000000 0.000000
vn 1.000000 0.000000 0.000000
vn 1.000000 0.000000 0.000000
vn 1.000000 0.000000 0.000000
vn 1.000000 0.000000 0.000000
vn 1.000000 0.000000 0.000000
vn 1.000000 0.000000 0.000000
vn 1.000000 0.000000 0.000000
vn 1.000000 0.000000 0.000000
vn 1.000000 0.000000 0.000000
vn 1.000000 0.000000 0.000000
vn 0.000000 0.000000 1.000000
vn 0.000000 0.000000 1.000000
vn 0.000000 0.000000 1.000000
vn 0.000000 0.000000 1.000000
vn 0.000000 0.000000 1.000000
vn 0.000000 0.000000 1.000000
vn 0.000000 0.000000 1.000000
vn 0.000000 0.000000 1.000000
vn 0.000000 0.000000 1.000000
vn 0.000000 0.000000 1.000000
vn 0.000000 0.000000 1.000000
vn 0.000000 0.000000 1.000000
vn 1.000000 0.000000 0.000000
vn 1.000000 0.000000 0.000000
vn 1.000000 0.000000 0.000000
vn 1.000000 0.000000 0.000000
vn 0.000000 0.000000 1.000000
vn 0.000000 0.000000 1.000000
vn 0.000000 0.000000 1.000000
vn 0.000000 0.000000 1.000000
vn 0.000000 0.000000 1.000000
vn 0.000000 0.000000 1.000000
vn 0.000000 0.000000 1.000000
vn 0.000000 0.000000 1.000000
vn 0.000000 0.000000 1.000000
vn 0.000000 0.000000 1.000000
vn 0.000000 0.000000 1.000000
vn 0.000000 0.000000 1.000000
vn 0.000000 0.000000 1.000000
vn 0.000000 0.000000 1.000000
vn 0.000000 0.000000 1.000000
vn 0.000000 0.000000 1.000000
vn -1.000000 0.000000 0.000000
vn -1.000000 0.000000 0.000000
vn -1.000000 0.000000 0.000000
vn -1.000000 0.000000 0.000000
vn 0.000000 0.000000 1.000000
vn 0.000000 0.000000 1.000000
vn 0.000000 0.000000 1.000000
vn 0.000000 0.000000 1.000000
vn 0.000000 0.000000 1.000000
vn 0.000000 0.000000 1.000000
vn 0.000000 0.000000 1.000000
vn 0.000000 0.000000 1.000000
vn 0.000000 0.000000 1.000000
vn 0.000000 0.000000 1.000000
vn 0.000000 0.000000 1.000000
vn 0.000000 0.000000 1.000000
vn 0.000000 0.000000 1.000000
vn 0.000000 0.000000 1.000000
vn 0.000000 0.000000 1.000000
vn 0.000000 0.000000 1.000000
vn 0.000000 0.000000 1.000000
vn 0.000000 0.000000 1.000000
vn 0.000000 0.000000 1.000000
vn 0.000000 0.000000 1.000000
vn 0.000000 0.000000 1.000000
vn 0.000000 0.000000 1.000000
vn 0.000000 0.000000 1.000000
vn 0.000000 0.000000 1.000000
vn 0.000000 0.894903 0.446260
vn 0.000000 0.894903 0.446260
vn 0.000000 0.894903 0.446260
vn 0.000000 0.894903 0.446260
vn 0.000000 0.000000 1.000000
vn 0.000000 0.000000 1.000000
vn 0.000000 0.000000 1.000000
vn 0.000000 0.000000 1.000000
vn 1.000000 0.000000 0.000000
vn 1.000000 0.000000 0.000000
vn 1.000000 0.000000 0.000000
vn 1.000000 0.000000 0.000000
vn 1.000000 0.000000 0.000000
vn 1.000000 0.000000 0.000000
vn 1.000000 0.000000 0.000000
vn 1.000000 0.000000 0.000000
vn 0.000000 0.000000 1.000000
vn 0.000000 0.000000 1.000000
vn 0.000000 0.000000 1.000000
vn 0.000000 0.000000 1.000000
vn 1.000000 0.000000 0.000000
vn 1.000000 0.000000 0.000000
vn 1.000000 0.000000 0.000000
vn 1.000000 0.000000 0.000000
vn 1.000000 0.000000 0.000000
vn 1.000000 0.000000 0.000000
vn 1.000000 0.000000 0.000000
vn 1.000000 0.000000 0.000000
vn 1.000000 0.000000 0.000000
vn 1.000000 0.000000 0.000000
vn 1.000000 0.000000 0.000000
vn 1.000000 0.000000 0.000000
vn 0.000000 0.000000 1.000000
vn 0.000000 0.000000 1.000000
vn 0.000000 0.000000 1.000000
vn 0.000000 0.000000 1.000000
vn 0.000000 0.000000 1.000000
vn 0.000000 0.000000 1.000000
vn 0.000000 0.000000 1.000000
vn 0.000000 0.000000 1.000000
vn 0.000000 0.000000 1.000000
vn 0.000000 0.000000 1.000000
vn 0.000000 0.000000 1.000000
vn 0.000000 0.000000 1.000000
vn 0.000000 0.000000 1.000000
vn 0.000000 0.000000 1.000000
vn 0.000000 0.000000 1.000000
vn 0.000000 0.000000 1.000000
vn 1.000000 0.000000 0.000000
vn 1.000000 0.000000 0.000000
vn 1.000000 0.000000 0.000000
vn 1.000000 0.000000 0.000000
vn 0.000000 0.000000 1.000000
vn 0.000000 0.000000 1.000000
vn 0.000000 0.000000 1.000000
vn 0.000000 0.000000 1.000000
vn 1.000000 0.000000 0.000000
vn 1.000000 0.000000 0.000000
vn 1.000000 0.000000 0.000000
vn 1.000000 0.000000 0.000000
s off
g polySurface22
usemtl initialShadingGroup
f 2/1/1 1/2/2 5/3/3
f 1/2/4 3/4/5 5/3/6
f 3/4/7 4/5/8 5/3/9
f 4/5/10 2/1/11 5/3/12
f 6/6/13 8/7/14 9/8/15 7/9/16
f 11/10/17 10/11/18 12/12/19 13/13/20
f 14/14/21 16/15/22 17/16/23 15/17/24
f 18/18/25 19/19/26 20/20/27 21/21/28
f 23/22/29 22/23/30 24/24/31 25/25/32
f 27/26/33 26/27/34 30/28/35
f 26/27/36 28/29/37 30/28/38
f 28/29/39 29/30/40 30/28/41
f 29/30/42 27/26/43 30/28/44
f 31/31/45 32/32/46 33/33/47 34/34/48
f 35/35/49 36/36/50 37/37/51 38/38/52
f 39/39/53 40/40/54 42/41/55 41/42/56
f 43/43/57 44/44/58 45/45/59 46/46/60
f 48/47/61 47/48/62 49/49/63 50/50/64
f 51/51/65 53/52/66 54/53/67 52/54/68
f 55/55/69 57/56/70 58/57/71 56/58/72
f 59/59/73 60/60/74 62/61/75 61/62/76
f 64/63/77 63/64/78 65/65/79 66/66/80
f 68/67/81 67/68/82 69/69/83 70/70/84
f 71/71/85 72/72/86 73/73/87 74/74/88
f 75/75/89 76/76/90 79/77/91
f 76/76/92 77/78/93 79/77/94
f 77/78/95 78/79/96 79/77/97
f 78/79/98 75/75/99 79/77/100
f 80/80/101 81/81/102 82/82/103 83/83/104
f 85/84/105 84/85/106 87/86/107 86/87/108
f 89/88/109 88/89/110 90/90/111 91/91/112
f 93/92/113 94/93/114 95/94/115 92/95/116
f 97/96/117 96/97/118 99/98/119 98/99/120
f 100/100/121 101/101/122 102/102/123 103/103/124
f 104/104/125 105/105/126 107/106/127 106/107/128
f 109/108/129 108/109/130 112/110/131
f 108/109/132 110/111/133 112/110/134
f 110/111/135 111/112/136 112/110/137
f 111/112/138 109/108/139 112/110/140
f 113/113/141 114/114/142 117/115/143
f 114/114/144 115/116/145 117/115/146
f 115/116/147 116/117/148 117/115/149
f 116/117/150 113/113/151 117/115/152
f 119/118/153 120/119/154 121/120/155 118/121/156
f 123/122/157 124/123/158 125/124/159 122/125/160
f 127/126/161 126/127/162 128/128/163 129/129/164
f 131/130/165 130/131/166 132/132/167 133/133/168
