# This file uses meters as units for non-parametric coordinates.

mtllib glass.mtl
g default
v -720.838257 547.503540 -821.755249
v -720.838257 547.503540 -752.913452
v -720.838257 606.368286 -752.913452
v -720.838257 606.368286 -821.755249
v -1063.710449 687.298706 -720.839355
v -1132.552124 687.298706 -720.839355
v -1132.552124 628.434692 -720.839355
v -1063.710449 628.434692 -720.839355
v -658.434753 606.368286 -1927.909180
v -658.434753 606.368286 -1996.750854
v -658.434753 547.503540 -1927.909180
v -658.434753 547.503540 -1996.750854
v 1224.218140 154.665527 -695.699951
v 1224.218140 25.816895 -695.699951
v 1158.962158 154.665527 -695.699951
v 1158.962158 25.816895 -695.699951
v 1191.590088 90.241333 -695.699951
v -658.434753 606.368286 -1772.510132
v -658.434753 606.368286 -1841.351929
v -658.434753 547.503540 -1772.510132
v -658.434753 547.503540 -1841.351929
v -1078.441406 150.270386 -737.895020
v -1078.441406 21.818115 -737.895020
v -1026.492310 21.818115 -737.895020
v -1026.492310 150.270386 -737.895020
v -1132.552124 606.368286 -720.839355
v -1063.710449 606.368286 -720.839355
v -1132.552124 547.503540 -720.839355
v -1063.710449 547.503540 -720.839355
v 731.869751 687.298706 -1440.436035
v 731.869751 628.434692 -1440.436035
v 663.027954 687.298706 -1440.436035
v 663.027954 628.434692 -1440.436035
v -658.434753 687.298706 -1772.510132
v -658.434753 687.298706 -1841.351929
v -658.434753 628.434692 -1772.510132
v -658.434753 628.434692 -1841.351929
v -977.153076 419.197662 -720.839355
v -977.153076 360.333374 -720.839355
v -908.311340 360.333374 -720.839355
v -908.311340 419.197662 -720.839355
v -690.508850 360.333374 -1740.436035
v -759.350647 360.333374 -1740.436035
v -690.508850 419.197662 -1740.436035
v -759.350647 419.197662 -1740.436035
v -821.754150 419.197662 -720.839355
v -821.754150 360.333374 -720.839355
v -752.912354 360.333374 -720.839355
v -752.912354 419.197662 -720.839355
v -1132.552124 338.266479 -720.839355
v -1063.710449 338.266479 -720.839355
v -1132.552124 279.402222 -720.839355
v -1063.710449 279.402222 -720.839355
v -977.153076 687.298706 -720.839355
v -977.153076 628.434692 -720.839355
v -908.311340 628.434692 -720.839355
v -908.311340 687.298706 -720.839355
v -1862.964600 145.708496 -674.261230
v -1862.964600 79.359619 -674.261230
v -1718.982422 79.359619 -674.261230
v -1718.982422 145.708496 -674.261230
v -1790.973511 112.533936 -674.261230
v -908.311340 338.266479 -720.839355
v -977.153076 338.266479 -720.839355
v -908.311340 279.402222 -720.839355
v -977.153076 279.402222 -720.839355
v -658.434753 419.197662 -1772.510132
v -658.434753 419.197662 -1841.351929
v -658.434753 360.333374 -1772.510132
v -658.434753 360.333374 -1841.351929
v 731.869751 419.197662 -1440.436035
v 731.869751 360.333374 -1440.436035
v 663.027954 419.197662 -1440.436035
v 663.027954 360.333374 -1440.436035
v -1219.109375 687.298706 -720.839355
v -1287.951050 687.298706 -720.839355
v -1287.951050 628.434692 -720.839355
v -1219.109375 628.434692 -720.839355
v -720.838257 628.434692 -821.755249
v -720.838257 687.298706 -821.755249
v -720.838257 687.298706 -752.913452
v -720.838257 628.434692 -752.913452
v -720.838257 279.402222 -821.755249
v -720.838257 279.402222 -752.913452
v -720.838257 338.266479 -752.913452
v -720.838257 338.266479 -821.755249
v 1213.166138 547.503540 -1440.436035
v 1282.007935 547.503540 -1440.436035
v 1282.007935 606.368286 -1440.436035
v 1213.166138 606.368286 -1440.436035
v -1812.837769 200.445740 -676.110413
v -1812.837769 250.861511 -777.211365
v -1756.670776 200.445740 -676.110413
v -1756.670776 250.861511 -777.211365
v -690.508850 628.434692 -1740.436035
v -759.350647 628.434692 -1740.436035
v -690.508850 687.298706 -1740.436035
v -759.350647 687.298706 -1740.436035
v 1282.007935 628.434692 -1440.436035
v 1213.166138 628.434692 -1440.436035
v 1282.007935 687.298706 -1440.436035
v 1213.166138 687.298706 -1440.436035
v -1287.951050 606.368286 -720.839355
v -1219.109375 606.368286 -720.839355
v -1287.951050 547.503540 -720.839355
v -1219.109375 547.503540 -720.839355
v -720.838257 279.402222 -1303.051758
v -720.838257 279.402222 -1371.893433
v -720.838257 338.266479 -1371.893433
v -720.838257 338.266479 -1303.051758
v -720.838257 547.503540 -1303.051758
v -720.838257 547.503540 -1371.893433
v -720.838257 606.368286 -1371.893433
v -720.838257 606.368286 -1303.051758
v -2501.012207 145.708496 -674.261230
v -2644.994629 145.708496 -674.261230
v -2644.994629 79.359619 -674.261230
v -2501.012207 79.359619 -674.261230
v -2573.003418 136.062256 -674.261230
v -658.434753 687.298706 -1927.909180
v -658.434753 687.298706 -1996.750854
v -658.434753 628.434692 -1927.909180
v -658.434753 628.434692 -1996.750854
v -1287.951050 338.266479 -720.839355
v -1219.109375 338.266479 -720.839355
v -1287.951050 279.402222 -720.839355
v -1219.109375 279.402222 -720.839355
v 1282.007935 360.333374 -1440.436035
v 1213.166138 360.333374 -1440.436035
v 1282.007935 419.197662 -1440.436035
v 1213.166138 419.197662 -1440.436035
v 1044.025757 65.872314 -707.293762
v 856.804871 65.872314 -707.293762
v 1044.025757 164.024414 -707.293762
v 856.804871 164.024414 -707.293762
v -759.350647 547.503540 -1740.436035
v -690.508850 547.503540 -1740.436035
v -690.508850 606.368286 -1740.436035
v -759.350647 606.368286 -1740.436035
v -908.311340 606.368286 -720.839355
v -977.153076 606.368286 -720.839355
v -908.311340 547.503540 -720.839355
v -977.153076 547.503540 -720.839355
v -821.754150 687.298706 -720.839355
v -821.754150 628.434692 -720.839355
v -752.912354 628.434692 -720.839355
v -752.912354 687.298706 -720.839355
v 802.803589 65.872314 -744.087341
v 802.803589 65.872314 -931.250122
v 802.803589 164.024414 -744.087341
v 802.803589 164.024414 -931.250122
v -720.838257 628.434692 -1303.051758
v -720.838257 628.434692 -1371.893433
v -720.838257 687.298706 -1371.893433
v -720.838257 687.298706 -1303.051758
v 731.869751 547.503540 -1440.436035
v 663.027954 547.503540 -1440.436035
v 663.027954 606.368286 -1440.436035
v 731.869751 606.368286 -1440.436035
v -962.422058 150.270386 -737.895020
v -1014.371277 150.270386 -737.895020
v -1014.371277 21.818115 -737.895020
v -962.422058 21.818115 -737.895020
v -2034.899902 200.445740 -676.110413
v -1978.732910 200.445740 -676.110413
v -1978.732910 250.861511 -777.211365
v -2034.899902 250.861511 -777.211365
v -658.434753 338.266479 -1927.909180
v -658.434753 338.266479 -1996.750854
v -658.434753 279.402222 -1927.909180
v -658.434753 279.402222 -1996.750854
v -720.838257 360.333374 -1303.051758
v -720.838257 360.333374 -1371.893433
v -720.838257 419.197662 -1371.893433
v -720.838257 419.197662 -1303.051758
v -658.434753 419.197662 -1927.909180
v -658.434753 419.197662 -1996.750854
v -658.434753 360.333374 -1927.909180
v -658.434753 360.333374 -1996.750854
v -1219.109375 419.197662 -720.839355
v -1287.951050 419.197662 -720.839355
v -1287.951050 360.333374 -720.839355
v -1219.109375 360.333374 -720.839355
v -1673.652588 79.359619 -904.653442
v -1673.652588 79.359619 -749.621094
v -1673.652588 145.708496 -904.653442
v -1673.652588 145.708496 -749.621094
v -1673.652588 112.533936 -827.137268
v -752.912354 338.266479 -720.839355
v -821.754150 338.266479 -720.839355
v -752.912354 279.402222 -720.839355
v -821.754150 279.402222 -720.839355
v 1213.166138 279.402222 -1440.436035
v 1282.007935 279.402222 -1440.436035
v 1282.007935 338.266479 -1440.436035
v 1213.166138 338.266479 -1440.436035
v 731.869751 279.402222 -1440.436035
v 663.027954 279.402222 -1440.436035
v 663.027954 338.266479 -1440.436035
v 731.869751 338.266479 -1440.436035
v -1063.710449 419.197662 -720.839355
v -1132.552124 419.197662 -720.839355
v -1132.552124 360.333374 -720.839355
v -1063.710449 360.333374 -720.839355
v -2036.470581 23.358154 -680.055481
v -2036.470581 140.064697 -680.055481
v -1970.607178 23.358154 -680.055481
v -1970.607178 140.064697 -680.055481
v -759.350647 279.402222 -1740.436035
v -690.508850 279.402222 -1740.436035
v -690.508850 338.266479 -1740.436035
v -759.350647 338.266479 -1740.436035
v -658.434753 338.266479 -1772.510132
v -658.434753 338.266479 -1841.351929
v -658.434753 279.402222 -1772.510132
v -658.434753 279.402222 -1841.351929
v -2455.682617 79.359619 -904.653442
v -2455.682617 79.359619 -749.621094
v -2455.682617 145.708496 -904.653442
v -2455.682617 145.708496 -749.621094
v -2455.682617 112.533936 -827.137268
v -752.912354 606.368286 -720.839355
v -821.754150 606.368286 -720.839355
v -752.912354 547.503540 -720.839355
v -821.754150 547.503540 -720.839355
v -720.838257 360.333374 -821.755249
v -720.838257 419.197662 -821.755249
v -720.838257 419.197662 -752.913452
v -720.838257 360.333374 -752.913452
vt 0.375000 0.126250
vt 0.437500 0.126250
vt 0.437500 0.075625
vt 0.375000 0.075625
vt 0.500000 0.025000
vt 0.562500 0.025000
vt 0.562500 0.075625
vt 0.500000 0.075625
vt 0.562500 0.075625
vt 0.562500 0.126250
vt 0.500000 0.126250
vt 0.500000 0.075625
vt 0.625000 0.000000
vt 0.875000 0.000000
vt 0.750000 0.125000
vt 0.875000 0.250000
vt 0.625000 0.250000
vt 0.625000 0.075625
vt 0.625000 0.126250
vt 0.562500 0.126250
vt 0.562500 0.075625
vt 0.000000 0.000000
vt 0.301829 1.079261
vt 1.039044 1.099052
vt 1.000000 0.000000
vt 0.562500 0.075625
vt 0.562500 0.126250
vt 0.500000 0.126250
vt 0.500000 0.075625
vt 0.437500 0.075625
vt 0.437500 0.025000
vt 0.375000 0.025000
vt 0.375000 0.075625
vt 0.562500 0.025000
vt 0.625000 0.025000
vt 0.625000 0.075625
vt 0.562500 0.075625
vt 0.500000 0.025000
vt 0.500000 0.075625
vt 0.562500 0.075625
vt 0.562500 0.025000
vt 0.437500 0.075625
vt 0.375000 0.075625
vt 0.375000 0.025000
vt 0.437500 0.025000
vt 0.562500 0.025000
vt 0.562500 0.075625
vt 0.625000 0.075625
vt 0.625000 0.025000
vt 0.562500 0.075625
vt 0.562500 0.126250
vt 0.500000 0.126250
vt 0.500000 0.075625
vt 0.500000 0.025000
vt 0.500000 0.075625
vt 0.562500 0.075625
vt 0.562500 0.025000
vt 0.500000 0.250000
vt 0.500000 0.028139
vt 0.562500 0.139070
vt 0.625000 0.028139
vt 0.625000 0.250000
vt 0.562500 0.075625
vt 0.500000 0.075625
vt 0.500000 0.126250
vt 0.562500 0.126250
vt 0.562500 0.025000
vt 0.625000 0.025000
vt 0.625000 0.075625
vt 0.562500 0.075625
vt 0.437500 0.075625
vt 0.437500 0.025000
vt 0.375000 0.025000
vt 0.375000 0.075625
vt 0.562500 0.025000
vt 0.625000 0.025000
vt 0.625000 0.075625
vt 0.562500 0.075625
vt 0.437500 0.075625
vt 0.437500 0.025000
vt 0.375000 0.025000
vt 0.375000 0.075625
vt 0.375000 0.126250
vt 0.437500 0.126250
vt 0.437500 0.075625
vt 0.375000 0.075625
vt 0.375000 0.126250
vt 0.375000 0.075625
vt 0.437500 0.075625
vt 0.437500 0.126250
vt 0.500000 0.500000
vt 0.500000 0.250000
vt 0.625000 0.250000
vt 0.625000 0.500000
vt 0.437500 0.075625
vt 0.375000 0.075625
vt 0.375000 0.025000
vt 0.437500 0.025000
vt 0.437500 0.075625
vt 0.375000 0.075625
vt 0.375000 0.025000
vt 0.437500 0.025000
vt 0.625000 0.075625
vt 0.625000 0.126250
vt 0.562500 0.126250
vt 0.562500 0.075625
vt 0.375000 0.126250
vt 0.375000 0.075625
vt 0.437500 0.075625
vt 0.437500 0.126250
vt 0.375000 0.126250
vt 0.375000 0.075625
vt 0.437500 0.075625
vt 0.437500 0.126250
vt 0.375000 0.500000
vt 0.500000 0.500000
vt 0.437500 0.610930
vt 0.500000 0.721860
vt 0.375000 0.721860
vt 0.500000 0.025000
vt 0.562500 0.025000
vt 0.562500 0.075625
vt 0.500000 0.075625
vt 0.625000 0.075625
vt 0.625000 0.126250
vt 0.562500 0.126250
vt 0.562500 0.075625
vt 0.437500 0.075625
vt 0.375000 0.075625
vt 0.375000 0.025000
vt 0.437500 0.025000
vt 0.625000 0.000000
vt 0.875000 0.000000
vt 0.875000 0.250000
vt 0.625000 0.250000
vt 0.375000 0.126250
vt 0.375000 0.075625
vt 0.437500 0.075625
vt 0.437500 0.126250
vt 0.562500 0.075625
vt 0.500000 0.075625
vt 0.500000 0.126250
vt 0.562500 0.126250
vt 0.562500 0.025000
vt 0.562500 0.075625
vt 0.625000 0.075625
vt 0.625000 0.025000
vt 0.625000 0.000000
vt 0.875000 0.000000
vt 0.875000 0.250000
vt 0.625000 0.250000
vt 0.437500 0.075625
vt 0.375000 0.075625
vt 0.375000 0.025000
vt 0.437500 0.025000
vt 0.375000 0.126250
vt 0.437500 0.126250
vt 0.437500 0.075625
vt 0.375000 0.075625
vt 0.000000 0.000000
vt 1.000000 0.000000
vt 1.039044 1.099052
vt 0.301829 1.079261
vt 0.375000 0.250000
vt 0.500000 0.250000
vt 0.500000 0.500000
vt 0.375000 0.500000
vt 0.562500 0.075625
vt 0.562500 0.126250
vt 0.500000 0.126250
vt 0.500000 0.075625
vt 0.437500 0.075625
vt 0.375000 0.075625
vt 0.375000 0.025000
vt 0.437500 0.025000
vt 0.500000 0.025000
vt 0.562500 0.025000
vt 0.562500 0.075625
vt 0.500000 0.075625
vt 0.562500 0.025000
vt 0.625000 0.025000
vt 0.625000 0.075625
vt 0.562500 0.075625
vt 0.625000 0.028139
vt 0.875000 0.028140
vt 0.750000 0.139070
vt 0.875000 0.250000
vt 0.625000 0.250000
vt 0.625000 0.075625
vt 0.562500 0.075625
vt 0.562500 0.126250
vt 0.625000 0.126250
vt 0.375000 0.126250
vt 0.375000 0.075625
vt 0.437500 0.075625
vt 0.437500 0.126250
vt 0.375000 0.126250
vt 0.437500 0.126250
vt 0.437500 0.075625
vt 0.375000 0.075625
vt 0.500000 0.025000
vt 0.562500 0.025000
vt 0.562500 0.075625
vt 0.500000 0.075625
vt 0.375000 0.250000
vt 0.783334 0.498941
vt 0.277265 0.504992
vt 0.500000 0.250000
vt 0.375000 0.126250
vt 0.375000 0.075625
vt 0.437500 0.075625
vt 0.437500 0.126250
vt 0.625000 0.075625
vt 0.625000 0.126250
vt 0.562500 0.126250
vt 0.562500 0.075625
vt 0.125000 0.028140
vt 0.375000 0.028139
vt 0.250000 0.139070
vt 0.375000 0.250000
vt 0.125000 0.250000
vt 0.625000 0.075625
vt 0.562500 0.075625
vt 0.562500 0.126250
vt 0.625000 0.126250
vt 0.437500 0.075625
vt 0.437500 0.025000
vt 0.375000 0.025000
vt 0.375000 0.075625
vn 1.000000 0.000000 0.000000
vn 1.000000 0.000000 0.000000
vn 1.000000 0.000000 0.000000
vn 1.000000 0.000000 0.000000
vn 0.000000 0.000000 1.000000
vn 0.000000 0.000000 1.000000
vn 0.000000 0.000000 1.000000
vn 0.000000 0.000000 1.000000
vn 1.000000 0.000000 0.000000
vn 1.000000 0.000000 0.000000
vn 1.000000 0.000000 0.000000
vn 1.000000 0.000000 0.000000
vn -0.000002 0.000000 1.000000
vn -0.000002 0.000000 1.000000
vn -0.000002 0.000000 1.000000
vn 0.000000 0.000000 1.000000
vn 0.000000 0.000000 1.000000
vn 0.000000 0.000000 1.000000
vn 0.000002 0.000000 1.000000
vn 0.000002 0.000000 1.000000
vn 0.000002 0.000000 1.000000
vn 0.000000 0.000000 1.000000
vn 0.000000 0.000000 1.000000
vn 0.000000 0.000000 1.000000
vn 1.000000 0.000000 0.000000
vn 1.000000 0.000000 0.000000
vn 1.000000 0.000000 0.000000
vn 1.000000 0.000000 0.000000
vn 0.000000 0.000000 1.000000
vn 0.000000 0.000000 1.000000
vn 0.000000 0.000000 1.000000
vn 0.000000 0.000000 1.000000
vn 0.000000 0.000000 1.000000
vn 0.000000 0.000000 1.000000
vn 0.000000 0.000000 1.000000
vn 0.000000 0.000000 1.000000
vn 0.000000 0.000000 1.000000
vn 0.000000 0.000000 1.000000
vn 0.000000 0.000000 1.000000
vn 0.000000 0.000000 1.000000
vn 1.000000 0.000000 0.000000
vn 1.000000 0.000000 0.000000
vn 1.000000 0.000000 0.000000
vn 1.000000 0.000000 0.000000
vn 0.000000 0.000000 1.000000
vn 0.000000 0.000000 1.000000
vn 0.000000 0.000000 1.000000
vn 0.000000 0.000000 1.000000
vn 0.000000 0.000000 1.000000
vn 0.000000 0.000000 1.000000
vn 0.000000 0.000000 1.000000
vn 0.000000 0.000000 1.000000
vn 0.000000 0.000000 1.000000
vn 0.000000 0.000000 1.000000
vn 0.000000 0.000000 1.000000
vn 0.000000 0.000000 1.000000
vn 0.000000 0.000000 1.000000
vn 0.000000 0.000000 1.000000
vn 0.000000 0.000000 1.000000
vn 0.000000 0.000000 1.000000
vn 0.000000 0.000000 1.000000
vn 0.000000 0.000000 1.000000
vn 0.000000 0.000000 1.000000
vn 0.000000 0.000000 1.000000
vn 0.000000 0.000000 1.000000
vn 0.000000 0.000000 1.000000
vn 0.000000 0.000000 1.000000
vn 0.000000 0.000000 1.000000
vn 0.000000 0.000000 1.000000
vn 0.000000 0.000000 1.000000
vn 0.000000 0.000000 1.000000
vn 0.000000 0.000000 1.000000
vn 0.000000 0.000000 1.000000
vn 0.000000 0.000000 1.000000
vn 0.000000 0.000000 1.000000
vn 0.000000 0.000000 1.000000
vn 0.000000 0.000000 1.000000
vn 0.000000 0.000000 1.000000
vn 0.000000 0.000000 1.000000
vn 0.000000 0.000000 1.000000
vn 1.000000 0.000000 0.000000
vn 1.000000 0.000000 0.000000
vn 1.000000 0.000000 0.000000
vn 1.000000 0.000000 0.000000
vn 0.000000 0.000000 1.000000
vn 0.000000 0.000000 1.000000
vn 0.000000 0.000000 1.000000
vn 0.000000 0.000000 1.000000
vn 0.000000 0.000000 1.000000
vn 0.000000 0.000000 1.000000
vn 0.000000 0.000000 1.000000
vn 0.000000 0.000000 1.000000
vn 1.000000 0.000000 0.000000
vn 1.000000 0.000000 0.000000
vn 1.000000 0.000000 0.000000
vn 1.000000 0.000000 0.000000
vn 1.000000 0.000000 0.000000
vn 1.000000 0.000000 0.000000
vn 1.000000 0.000000 0.000000
vn 1.000000 0.000000 0.000000
vn 0.000000 0.000000 1.000000
vn 0.000000 0.000000 1.000000
vn 0.000000 0.000000 1.000000
vn 0.000000 0.000000 1.000000
vn 0.000000 0.894904 0.446260
vn 0.000000 0.894904 0.446260
vn 0.000000 0.894904 0.446260
vn 0.000000 0.894904 0.446260
vn 0.000000 0.000000 1.000000
vn 0.000000 0.000000 1.000000
vn 0.000000 0.000000 1.000000
vn 0.000000 0.000000 1.000000
vn 0.000000 0.000000 1.000000
vn 0.000000 0.000000 1.000000
vn 0.000000 0.000000 1.000000
vn 0.000000 0.000000 1.000000
vn 0.000000 0.000000 1.000000
vn 0.000000 0.000000 1.000000
vn 0.000000 0.000000 1.000000
vn 0.000000 0.000000 1.000000
vn 1.000000 0.000000 0.000000
vn 1.000000 0.000000 0.000000
vn 1.000000 0.000000 0.000000
vn 1.000000 0.000000 0.000000
vn 1.000000 0.000000 0.000000
vn 1.000000 0.000000 0.000000
vn 1.000000 0.000000 0.000000
vn 1.000000 0.000000 0.000000
vn 0.000000 0.000000 1.000000
vn 0.000000 0.000000 1.000000
vn 0.000000 0.000000 1.000000
vn 0.000000 0.000000 1.000000
vn 0.000000 0.000000 1.000000
vn 0.000000 0.000000 1.000000
vn 0.000000 0.000000 1.000000
vn 0.000000 0.000000 1.000000
vn 0.000000 0.000000 1.000000
vn 0.000000 0.000000 1.000000
vn 0.000000 0.000000 1.000000
vn 0.000000 0.000000 1.000000
vn 1.000000 0.000000 0.000000
vn 1.000000 0.000000 0.000000
vn 1.000000 0.000000 0.000000
vn 1.000000 0.000000 0.000000
vn 0.000000 0.000000 1.000000
vn 0.000000 0.000000 1.000000
vn 0.000000 0.000000 1.000000
vn 0.000000 0.000000 1.000000
vn 0.000000 0.000000 1.000000
vn 0.000000 0.000000 1.000000
vn 0.000000 0.000000 1.000000
vn 0.000000 0.000000 1.000000
vn 0.000000 0.000000 1.000000
vn 0.000000 0.000000 1.000000
vn 0.000000 0.000000 1.000000
vn 0.000000 0.000000 1.000000
vn 0.000000 0.000000 1.000000
vn 0.000000 0.000000 1.000000
vn 0.000000 0.000000 1.000000
vn 0.000000 0.000000 1.000000
vn 0.000000 0.000000 1.000000
vn 0.000000 0.000000 1.000000
vn 0.000000 0.000000 1.000000
vn 0.000000 0.000000 1.000000
vn 0.000000 0.000000 1.000000
vn 0.000000 0.000000 1.000000
vn 0.000000 0.000000 1.000000
vn 0.000000 0.000000 1.000000
vn -1.000000 0.000000 0.000000
vn -1.000000 0.000000 0.000000
vn -1.000000 0.000000 0.000000
vn -1.000000 0.000000 0.000000
vn 1.000000 0.000000 0.000000
vn 1.000000 0.000000 0.000000
vn 1.000000 0.000000 0.000000
vn 1.000000 0.000000 0.000000
vn 0.000000 0.000000 1.000000
vn 0.000000 0.000000 1.000000
vn 0.000000 0.000000 1.000000
vn 0.000000 0.000000 1.000000
vn 0.000000 0.000000 1.000000
vn 0.000000 0.000000 1.000000
vn 0.000000 0.000000 1.000000
vn 0.000000 0.000000 1.000000
vn 0.000000 0.894904 0.446260
vn 0.000000 0.894904 0.446260
vn 0.000000 0.894904 0.446260
vn 0.000000 0.894904 0.446260
vn 1.000000 0.000000 0.000000
vn 1.000000 0.000000 0.000000
vn 1.000000 0.000000 0.000000
vn 1.000000 0.000000 0.000000
vn 1.000000 0.000000 0.000000
vn 1.000000 0.000000 0.000000
vn 1.000000 0.000000 0.000000
vn 1.000000 0.000000 0.000000
vn 1.000000 0.000000 0.000000
vn 1.000000 0.000000 0.000000
vn 1.000000 0.000000 0.000000
vn 1.000000 0.000000 0.000000
vn 0.000000 0.000000 1.000000
vn 0.000000 0.000000 1.000000
vn 0.000000 0.000000 1.000000
vn 0.000000 0.000000 1.000000
vn 1.000000 0.000000 0.000000
vn 1.000000 0.000000 0.000000
vn 1.000000 0.000000 0.000000
vn 1.000000 0.000000 0.000000
vn 1.000000 0.000000 0.000000
vn 1.000000 0.000000 0.000000
vn 1.000000 0.000000 0.000000
vn 1.000000 0.000000 0.000000
vn 1.000000 0.000000 0.000000
vn 1.000000 0.000000 0.000000
vn 1.000000 0.000000 0.000000
vn 1.000000 0.000000 0.000000
vn 0.000000 0.000000 1.000000
vn 0.000000 0.000000 1.000000
vn 0.000000 0.000000 1.000000
vn 0.000000 0.000000 1.000000
vn 0.000000 0.000000 1.000000
vn 0.000000 0.000000 1.000000
vn 0.000000 0.000000 1.000000
vn 0.000000 0.000000 1.000000
vn 0.000000 0.000000 1.000000
vn 0.000000 0.000000 1.000000
vn 0.000000 0.000000 1.000000
vn 0.000000 0.000000 1.000000
vn 0.000000 0.000000 1.000000
vn 0.000000 0.000000 1.000000
vn 0.000000 0.000000 1.000000
vn 0.000000 0.000000 1.000000
vn 0.000000 0.000000 1.000000
vn 0.000000 0.000000 1.000000
vn 0.000000 0.000000 1.000000
vn 0.000000 0.000000 1.000000
vn 0.000000 0.000000 1.000000
vn 0.000000 0.000000 1.000000
vn 0.000000 0.000000 1.000000
vn 0.000000 0.000000 1.000000
vn 1.000000 0.000000 0.000000
vn 1.000000 0.000000 0.000000
vn 1.000000 0.000000 0.000000
vn 1.000000 0.000000 0.000000
vn 1.000000 0.000000 0.000000
vn 1.000000 0.000000 0.000000
vn 1.000000 0.000000 0.000000
vn 1.000000 0.000000 0.000000
vn 1.000000 0.000000 0.000000
vn 1.000000 0.000000 0.000000
vn 1.000000 0.000000 0.000000
vn 1.000000 0.000000 0.000000
vn 1.000000 0.000000 0.000000
vn 1.000000 0.000000 0.000000
vn 1.000000 0.000000 0.000000
vn 1.000000 0.000000 0.000000
vn 0.000000 0.000000 1.000000
vn 0.000000 0.000000 1.000000
vn 0.000000 0.000000 1.000000
vn 0.000000 0.000000 1.000000
vn 1.000000 0.000000 0.000000
vn 1.000000 0.000000 0.000000
vn 1.000000 0.000000 0.000000
vn 1.000000 0.000000 0.000000
s off
g glass
usemtl mrSEMAFEROSG
f 2/1/1 1/2/2 4/3/3 3/4/4
f 5/5/5 6/6/6 7/7/7 8/8/8
f 9/9/9 11/10/10 12/11/11 10/12/12
f 14/13/13 13/14/14 17/15/15
f 13/14/16 15/16/17 17/15/18
f 15/16/19 16/17/20 17/15/21
f 16/17/22 14/13/23 17/15/24
f 18/18/25 20/19/26 21/20/27 19/21/28
f 22/22/29 23/23/30 24/24/31 25/25/32
f 26/26/33 28/27/34 29/28/35 27/29/36
f 31/30/37 30/31/38 32/32/39 33/33/40
f 35/34/41 34/35/42 36/36/43 37/37/44
f 38/38/45 39/39/46 40/40/47 41/41/48
f 43/42/49 42/43/50 44/44/51 45/45/52
f 46/46/53 47/47/54 48/48/55 49/49/56
f 50/50/57 52/51/58 53/52/59 51/53/60
f 54/54/61 55/55/62 56/56/63 57/57/64
f 58/58/65 59/59/66 62/60/67
f 59/59/68 60/61/69 62/60/70
f 60/61/71 61/62/72 62/60/73
f 61/62/74 58/58/75 62/60/76
f 63/63/77 64/64/78 66/65/79 65/66/80
f 68/67/81 67/68/82 69/69/83 70/70/84
f 72/71/85 71/72/86 73/73/87 74/74/88
f 75/75/89 76/76/90 77/77/91 78/78/92
f 79/79/93 80/80/94 81/81/95 82/82/96
f 84/83/97 83/84/98 86/85/99 85/86/100
f 88/87/101 89/88/102 90/89/103 87/90/104
f 92/91/105 91/92/106 93/93/107 94/94/108
f 96/95/109 95/96/110 97/97/111 98/98/112
f 100/99/113 99/100/114 101/101/115 102/102/116
f 103/103/117 105/104/118 106/105/119 104/106/120
f 108/107/121 109/108/122 110/109/123 107/110/124
f 112/111/125 113/112/126 114/113/127 111/114/128
f 115/115/129 116/116/130 119/117/131
f 116/116/132 117/118/133 119/117/134
f 117/118/135 118/119/136 119/117/137
f 118/119/138 115/115/139 119/117/140
f 121/120/141 120/121/142 122/122/143 123/123/144
f 124/124/145 126/125/146 127/126/147 125/127/148
f 129/128/149 128/129/150 130/130/151 131/131/152
f 133/132/153 132/133/154 134/134/155 135/135/156
f 137/136/157 138/137/158 139/138/159 136/139/160
f 140/140/161 141/141/162 143/142/163 142/143/164
f 144/144/165 145/145/166 146/146/167 147/147/168
f 149/148/169 148/149/170 150/150/171 151/151/172
f 152/152/173 153/153/174 154/154/175 155/155/176
f 157/156/177 156/157/178 159/158/179 158/159/180
f 160/160/181 161/161/182 162/162/183 163/163/184
f 164/164/185 165/165/186 166/166/187 167/167/188
f 168/168/189 170/169/190 171/170/191 169/171/192
f 172/172/193 173/173/194 174/174/195 175/175/196
f 177/176/197 176/177/198 178/178/199 179/179/200
f 180/180/201 181/181/202 182/182/203 183/183/204
f 185/184/205 184/185/206 188/186/207
f 184/185/208 186/187/209 188/186/210
f 186/187/211 187/188/212 188/186/213
f 187/188/214 185/184/215 188/186/216
f 189/189/217 190/190/218 192/191/219 191/192/220
f 194/193/221 195/194/222 196/195/223 193/196/224
f 198/197/225 197/198/226 200/199/227 199/200/228
f 201/201/229 202/202/230 203/203/231 204/204/232
f 206/205/233 205/206/234 207/207/235 208/208/236
f 210/209/237 211/210/238 212/211/239 209/212/240
f 213/213/241 215/214/242 216/215/243 214/216/244
f 218/217/245 217/218/246 221/219/247
f 217/218/248 219/220/249 221/219/250
f 219/220/251 220/221/252 221/219/253
f 220/221/254 218/217/255 221/219/256
f 222/222/257 223/223/258 225/224/259 224/225/260
f 226/226/261 227/227/262 228/228/263 229/229/264
